<svg xmlns="http://www.w3.org/2000/svg" xmlns:xlink="http://www.w3.org/1999/xlink" viewBox="0 0 735.24 179.29"><defs><style>.cls-1{fill:#fff;}.cls-2{fill:#010101;}.cls-3{fill:url(#Dégradé_sans_nom_4);}.cls-4{stroke:#fff;fill:url(#Dégradé_sans_nom_2);}.cls-5{fill:#92d4f6;}.cls-6{fill:#1f78be;}.cls-7{fill:#1b1d1d;}.cls-8{fill:none;stroke:#000;stroke-miterlimit:10;stroke-width:2px;stroke-dasharray:5;}</style><linearGradient id="Dégradé_sans_nom_4" x1="607.02" y1="327.12" x2="731.6" y2="228.23" gradientTransform="matrix(1, 0, 0, -1, 0, 352.57)" gradientUnits="userSpaceOnUse"><stop offset="0" stop-color="#5f4796"/><stop offset="1" stop-color="#4d4696"/></linearGradient><linearGradient id="Dégradé_sans_nom_2" x1="645.33" y1="307.46" x2="673.18" y2="260.36" gradientTransform="matrix(1, 0, 0, -1, 0, 352.57)" gradientUnits="userSpaceOnUse"><stop offset="0" stop-color="#fff"/><stop offset="1" stop-color="#f0e5f2"/></linearGradient></defs><title>article_1</title><g id="Calque_2" data-name="Calque 2"><g id="Calque_1-2" data-name="Calque 1"><g id="carré"><rect class="cls-1" width="161.92" height="179.29"/><path class="cls-2" d="M125,67.69a45,45,0,1,1-45-44.95A45,45,0,0,1,125,67.69Z"/><path class="cls-1" d="M99.71,39.37c-4.57.16-8.55,2.68-11.52,6.16a38.8,38.8,0,0,0-7,13c-2.82-2.31-5-5.3-9.51-6.6a11.63,11.63,0,0,0-10.54,1.92,9.5,9.5,0,0,0-3.22,4.7c-1.36,4.41,1.43,8.33,2.69,9.74l2.76,3a4.18,4.18,0,0,1,1.27,4.26,5.09,5.09,0,0,1-6.48,3c-1.31-.4-3.18-1.37-2.76-2.73a10.59,10.59,0,0,1,.79-1.46,7.82,7.82,0,0,0,.35-.92c.53-1.74-.2-4-2.06-4.58s-3.52-.11-4.21,2.13c-.78,2.55.43,7.16,7,9.17,7.64,2.35,14.1-1.81,15-7.23.58-3.4-1-5.93-3.77-9.17l-2.29-2.54a4.18,4.18,0,0,1-.43-5.56c1.22-1.54,2.94-2.19,5.77-1.42,4.13,1.12,6,4,9,6.29-1.26,4.16-2.09,8.33-2.84,12.07l-.46,2.79C75,86.82,73.34,93.14,69,96.76a7,7,0,0,1-4,1.63,1.17,1.17,0,0,1-1.33-1c0-.7.57-1,1-1.33A2.39,2.39,0,0,0,66,93.58a3.83,3.83,0,0,0-4.1-3.64,4.75,4.75,0,0,0-4.41,4.82c.11,3.18,3.07,5.56,7.54,5.41,2.39-.08,7.72-1,13-7.3,6.12-7.16,7.83-15.37,9.12-21.37l1.44-7.94c.79.1,1.65.16,2.58.19,7.61.16,11.42-3.79,11.48-6.66,0-1.74-1.14-3.45-2.79-3.41a3.18,3.18,0,0,0-3,2.45c-.35,1.6,2.42,3,.25,4.45-1.54,1-4.29,1.7-8.18,1.13l.71-3.9c1.44-7.41,3.22-16.52,10-16.74.5,0,2.29,0,2.34,1.21,0,.4-.09.5-.55,1.41a3.19,3.19,0,0,0,3,5.07c2.78-.09,3.58-2.8,3.54-4.2C107.72,41.29,104.27,39.22,99.71,39.37Z"/><path class="cls-2" d="M96.74,131.37c4.54,0,7.59,3.28,7.59,7.82a7.6,7.6,0,1,1-15.2,0C89.13,134.65,92.17,131.37,96.74,131.37Zm0,13.41c3.22,0,4.66-2.92,4.66-5.59,0-2.84-1.73-5.6-4.66-5.6s-4.68,2.76-4.68,5.6C92.06,141.86,93.49,144.78,96.74,144.78Z"/><path class="cls-2" d="M88.75,132.76v-1h-4V130.3c0-2,.3-3.55,2.67-3.55h.15a1.19,1.19,0,0,0,1.24-1.15l.05-.9a11.22,11.22,0,0,0-1.85-.17c-4.07,0-5,2.37-5,6v1.19H78.53v1.16a1.23,1.23,0,0,0,1.23,1.06H82v12.71h1.52a1.25,1.25,0,0,0,1.23-1.08V133.94h2.76A1.23,1.23,0,0,0,88.75,132.76Z"/><path class="cls-2" d="M52.07,131.72h0a1.59,1.59,0,0,0-1.39.94l-3.79,11.42h-.06l-3.7-11.41a1.6,1.6,0,0,0-1.4-.95H39.79l5.07,13.94a8.1,8.1,0,0,1,.53,1.58c0,.3-.82,3.7-3.29,3.7l-.18,0A1.17,1.17,0,0,0,40.71,152l-.07,1a9.76,9.76,0,0,0,1.88.2c3.63,0,4.71-3.31,5.74-6.18l5.5-15.26Z"/><path class="cls-2" d="M34.57,134.75c-2.28-1.16-4.77-1.95-4.81-4.29,0-2.49,2.29-3.14,4.05-3.14h0a8.81,8.81,0,0,1,2,.21h0a1.2,1.2,0,0,0,1.24-1.07l0-.91a15,15,0,0,0-3.41-.43c-3.83,0-6.67,2-6.68,5.63,0,3.21,2.17,4.46,4.5,5.59s4.78,2,4.8,4.65-2.68,3.79-4.52,3.79a11.24,11.24,0,0,1-3.23-.58c-.62-.1-1.12.44-1.2,1.16l-.08.81a13.53,13.53,0,0,0,4.13.82h0c4.29,0,7.62-1.74,7.63-6.18C39.07,137.37,36.89,135.93,34.57,134.75Z"/><path class="cls-2" d="M76.21,146.66h0a1.24,1.24,0,0,0,1.21-1v-8.6c0-3.25-1.37-5.71-5.18-5.71a5.33,5.33,0,0,0-4.63,2.9,4.42,4.42,0,0,0-4.25-2.9,5,5,0,0,0-4.74,2.52h-.06V133a1.25,1.25,0,0,0-1.25-1.24H56v14.94h1.5a1.25,1.25,0,0,0,1.25-1.25s0,0,0,0v-6.24c0-2.78,1.11-5.54,3.92-5.54,2.23,0,2.67,2.32,2.67,4.16v8.91h1.51a1.25,1.25,0,0,0,1.24-1.14v-6.39c0-2.78,1.11-5.54,3.92-5.54,2.23,0,2.67,2.32,2.67,4.16v8.91Z"/><path class="cls-2" d="M118.77,146.66h0a1.24,1.24,0,0,0,1.24-1.19v-7.69c0-4-1.73-6.41-5.59-6.41a5.36,5.36,0,0,0-4.89,2.72h-.06V133h0a1.25,1.25,0,0,0-1.25-1.25H106.8v14.94h1.52a1.26,1.26,0,0,0,1.24-1.15v-5.77c0-3.63,1.4-6.15,4.54-6.15,2.4.15,3.16,1.85,3.16,5.33v7.74Z"/><path class="cls-2" d="M133.59,131.72h0a1.58,1.58,0,0,0-1.38.94l-3.79,11.42h-.06l-3.71-11.41a1.57,1.57,0,0,0-1.39-.95h-1.93l5.07,13.94a8.84,8.84,0,0,1,.53,1.58c0,.3-.83,3.7-3.29,3.7l-.18,0a1.17,1.17,0,0,0-1.21,1.08l-.07,1a9.74,9.74,0,0,0,1.87.2c3.64,0,4.72-3.31,5.74-6.18l5.51-15.26Z"/></g><path class="cls-3" d="M608.39,28.69c-.27-7.73,5.75-14.85,13.89-14.85h83.35c8.14,0,14.16,7.12,13.89,14.85-.26,7.42.08,17,2.49,24.86S728.53,66.39,735.24,67v7.24c-6.71.64-10.8,5.61-13.23,13.47s-2.75,17.45-2.49,24.87c.27,7.73-5.75,14.85-13.89,14.85H622.28c-8.14,0-14.16-7.12-13.89-14.85.26-7.42-.08-17-2.49-24.87s-6.53-12.83-13.24-13.47V67c6.71-.63,10.81-5.6,13.24-13.47S608.65,36.11,608.39,28.69Z"/><path class="cls-4" d="M667,100.85c13.17,0,21.11-6.45,21.11-17.09,0-8-5.66-13.86-14.07-14.78v-.34a13.5,13.5,0,0,0,11-13.15c0-9.12-7.2-15.07-18.19-15.07H642.2v60.43ZM651.81,48.08H664.6c6.95,0,10.89,3.1,10.89,8.71,0,6-4.59,9.34-12.91,9.34H651.81Zm0,45.1V73.29h12.7c9.1,0,13.81,3.35,13.81,9.88s-4.59,10-13.25,10Z"/><path class="cls-1" d="M256.8,31.06l34.11,19.29V88.94L256.8,108.23,222.7,88.94V50.35Z"/><path class="cls-5" d="M284.82,87.61l-26.89,15.21V91l16.75-9.22,10.14,5.85Zm1.84-1.67V54.14l-9.84,5.68V80.27l9.84,5.67Zm-58,1.67,26.89,15.21V91l-16.76-9.22-10.13,5.85Zm-1.84-1.67V54.14l9.83,5.68V80.27ZM228,52.08l27.58-15.6V47.92L237.9,57.65l-.14.07L228,52.08Zm57.52,0-27.58-15.6V47.92l17.67,9.72.14.08,9.77-5.64Z"/><path class="cls-6" d="M255.57,88.28,239,79.18v-18l16.54,9.54Zm2.36,0,16.53-9.09v-18l-16.53,9.54ZM240.15,59.1,256.75,50l16.59,9.12-16.59,9.58Z"/><path class="cls-7" d="M325.31,81.85h7.27L340,57.15H332.9l-4.39,17.52-4.68-17.52H317.7L313,74.67l-4.35-17.52h-7.08l7.36,24.7h7.27L320.77,66l4.54,15.82Zm15.06-12.28c0,7.41,5.05,12.89,13,12.89,6.14,0,9.44-3.68,10.39-5.43l-4.3-3.26a7.23,7.23,0,0,1-6,3c-3.64,0-6.29-2.37-6.43-5.67h17.39c0-.48,0-.94,0-1.42,0-8.07-4.34-13.18-12-13.18-7,0-12.09,5.57-12.09,13Zm6.84-2.7a5.24,5.24,0,0,1,5.35-5,5,5,0,0,1,5.28,5Zm19.7,15h6.14V79.3a9.65,9.65,0,0,0,7.33,3.16c7.08,0,12.09-5.33,12.09-12.93s-4.63-13-11.71-13a9.32,9.32,0,0,0-7.33,3.21v-12h-6.51V81.85Zm6.33-12.28c0-4.63,2.74-7.27,6.33-7.27,3.78,0,6.33,3,6.33,7.27s-2.65,7.13-6.33,7.13C375.6,76.7,373.24,73.48,373.24,69.57ZM395,90.68h6.51V79.29a9.44,9.44,0,0,0,7.32,3.16c7.09,0,11.72-5.33,11.72-13s-5-12.94-12.09-12.94a9.48,9.48,0,0,0-7.33,3.21v-2.6H395V90.68Zm6.33-21.25c0-3.92,2.36-7.13,6.32-7.13,3.69,0,6.33,2.74,6.33,7.13s-2.55,7.27-6.33,7.27C404.08,76.7,401.34,74.05,401.34,69.43Zm20.4,4.77c0,5.19,4.25,8.26,9.25,8.26,2.84,0,4.73-.84,6-2.22l.43,1.61h5.76V66.21c0-5.52-2.36-9.68-10.29-9.68a18.41,18.41,0,0,0-9.73,2.93l2.46,4.44a14.56,14.56,0,0,1,6.56-1.74c2.88,0,4.49,1.46,4.49,3.64v1.6A10,10,0,0,0,431.33,66c-5.77,0-9.59,3.29-9.59,8.16Zm6.51-.2c0-2,1.75-3.44,4.25-3.44s4.3,1.27,4.3,3.44-1.8,3.4-4.25,3.4S428.25,76,428.25,74ZM459,76.7a6.83,6.83,0,0,1-7-7.17c0-4,2.6-7.23,6.8-7.23a8.34,8.34,0,0,1,5.76,2.36l1.85-5.48a12.55,12.55,0,0,0-7.79-2.65,12.75,12.75,0,0,0-13.14,13c0,7.51,5.49,12.89,13.18,12.89a12.39,12.39,0,0,0,7.69-2.64l-1.74-5.33A9,9,0,0,1,459,76.7Zm9.77,5.15h6.52V69.09l8.26,12.76h7.65l-9.35-13.51,8.69-11.2h-7.32l-7.93,10.39V47.7h-6.52V81.85Z"/><line class="cls-8" x1="143.92" y1="69.64" x2="211.92" y2="69.64"/><line class="cls-8" x1="507.2" y1="66.13" x2="575.2" y2="66.13"/></g></g></svg>